<svg width="61" height="61" viewBox="0 0 61 61" fill="none" xmlns="http://www.w3.org/2000/svg">
<path d="M35.4321 35.5444C36.7159 31.6289 39.4118 28.4195 43.0706 26.6222C44.4827 25.9162 46.0232 25.4026 47.6279 25.1459V19.6899H51.8002C52.763 19.6899 53.5333 18.9196 53.5333 17.9568V15.8385C53.5333 15.1967 53.2124 14.619 52.6347 14.3622L27.6653 0.240707C27.1518 -0.0802358 26.5099 -0.0802358 25.9964 0.240707L17.1384 5.24742V3.38595C17.1384 2.74406 16.6248 2.23055 15.983 2.23055H12.0675C11.4256 2.23055 10.9121 2.74406 10.9121 3.38595V8.77779L0.898641 14.4264C0.385132 14.7473 0 15.325 0 15.9027V17.9568C0 18.9196 0.770263 19.6899 1.73309 19.6899H5.90535V44.1457C5.90535 45.6862 7.18912 46.97 8.72965 46.97H36.1382C34.4051 43.5038 34.1483 39.3316 35.4321 35.5444Z" fill="#CC3441"/>
<path d="M59.7596 35.3519C56.9995 29.8959 50.388 27.7776 44.9962 30.4735C39.5401 33.2337 37.4861 40.0377 40.1178 45.2369C41.2732 47.5477 45.959 55.6355 48.3982 59.8719C49.1043 61.0273 50.7732 61.0273 51.4792 59.8719C53.9184 55.6355 58.54 47.5477 59.7596 45.2369C61.4285 42.2201 61.3643 38.5613 59.7596 35.3519ZM49.9387 45.1086C47.307 45.1086 45.1887 42.9903 45.1887 40.3586C45.1887 37.7269 47.307 35.6086 49.9387 35.6086C52.5704 35.6086 54.6887 37.7269 54.6887 40.3586C54.6887 42.9261 52.5704 45.1086 49.9387 45.1086Z" fill="#CC3441"/>
</svg>
