<svg width="14" height="14" viewBox="0 0 14 14" fill="none" xmlns="http://www.w3.org/2000/svg">
<g clip-path="url(#clip0)">
<path d="M13.5267 11.2418L9.28475 6.99945L13.5267 2.75729C14.1576 2.12609 14.1576 1.10362 13.5267 0.472419C13.2114 0.157158 12.7981 -0.000594139 12.385 -0.000594139C11.9711 -0.000594139 11.5578 0.156917 11.2428 0.472419L6.99991 4.71505L2.75738 0.472459C2.44216 0.157198 2.02879 -0.000553131 1.6153 -0.000553131C1.20193 -0.000553131 0.788846 0.156957 0.473343 0.472459C-0.157622 1.10338 -0.157622 2.12589 0.473343 2.75733L4.71515 6.99949L0.473102 11.2418C-0.157863 11.8728 -0.157863 12.8955 0.473102 13.5264C1.10395 14.1569 2.12605 14.1569 2.75714 13.5264L6.99987 9.28408L11.2423 13.5264C11.8735 14.1569 12.8957 14.1569 13.5264 13.5264C14.1576 12.8955 14.1576 11.8728 13.5267 11.2418Z" fill="white"/>
</g>
<defs>
<clipPath id="clip0">
<rect width="14" height="14" fill="white" transform="matrix(1 0 0 -1 0 14)"/>
</clipPath>
</defs>
</svg>
